#!OML:ASF I:\Actors\actors\Patient Classification 2\Patient 1\Session 1\actor1.ASF
:FULLY-SPECIFIED
:DEGREES
694
root -0.650685 18.684 5.85732 0.888179 -3.28511 -4.96009
lowerback 2.87792 0.516733 1.24524
upperback -0.573852 0.752234 0.806714
thorax -2.19677 0.364495 0.0938876
lowerneck -9.31949 -0.125703 1.07894
upperneck 26.9498 -0.89335 1.77442
head 10.0998 -0.113026 0.337301
rclavicle -5.62809e-015 5.56597e-015
rhumerus -16.1883 36.9537 -61.4007
rradius 115.263
rwrist -33.4807
rhand 2.41513 -48.6577
rfingers 7.12502
rthumb 27.9015 -76.6051
lclavicle -5.62809e-015 5.56597e-015
lhumerus -30.0159 -23.0095 88.6488
lradius 108.791
lwrist 15.8187
lhand -5.70639 -34.7206
lfingers 7.12502
lthumb 20.1146 -5.74188
rfemur 0 0 0
rtibia 0
rfoot 0 0
rtoes 0
lfemur -4.1807 -5.39098 -9.54622
ltibia 23.7111
lfoot -24.5794 14.8344
ltoes -55.4819
695
root -0.65362 18.6819 5.86645 0.824282 -3.18336 -5.01318
lowerback 2.78375 0.514115 1.30652
upperback -0.615117 0.749302 0.785803
thorax -2.18523 0.362056 0.0389787
lowerneck -9.36935 -0.181757 1.03119
upperneck 26.8596 -1.00533 1.93557
head 10.0786 -0.151901 0.38926
rclavicle 5.18704e-015 7.95139e-016
rhumerus -17.1324 36.3467 -62.1977
rradius 114.6
rwrist -37.2839
rhand 3.10345 -50.3229
rfingers 7.12502
rthumb 28.5594 -78.1615
lclavicle 5.18704e-015 7.95139e-016
lhumerus -30.0265 -22.7665 88.5924
lradius 108.36
lwrist 15.6947
lhand -5.79258 -34.3583
lfingers 7.12502
lthumb 20.0317 -5.37084
rfemur 0 0 0
rtibia 0
rfoot 0 0
rtoes 0
lfemur -4.11765 -5.36882 -9.47054
ltibia 23.7223
lfoot -24.5728 14.7392
ltoes -55.4758
696
root -0.656824 18.6797 5.87522 0.722651 -3.05549 -4.99861
lowerback 2.7642 0.502515 1.26247
upperback -0.705325 0.732775 0.76639
thorax -2.26734 0.353608 0.0442285
lowerneck -9.2008 -0.262007 0.996674
upperneck 26.6516 -1.12823 2.02728
head 9.97188 -0.20517 0.412913
rclavicle 5.34855e-015 -3.18055e-015
rhumerus -18.6131 35.6068 -63.3959
rradius 113.946
rwrist -39.9594
rhand 3.78646 -51.8352
rfingers 7.12502
rthumb 29.2118 -79.5623
lclavicle 5.34855e-015 -3.18055e-015
lhumerus -30.2008 -22.4768 88.6057
lradius 107.876
lwrist 15.5991
lhand -5.86706 -34.0714
lfingers 7.12502
lthumb 19.9601 -5.07654
rfemur 0 0 0
rtibia 0
rfoot 0 0
rtoes 0
lfemur -4.02478 -5.39758 -9.47513
ltibia 23.7348
lfoot -24.5869 14.6558
ltoes -55.5179
697
root -0.659734 18.6775 5.88203 0.636712 -2.86703 -4.9797
lowerback 2.78168 0.481025 1.18252
upperback -0.805178 0.70328 0.781093
thorax -2.38114 0.339343 0.104834
lowerneck -9.09329 -0.335134 0.879731
upperneck 26.4354 -1.2202 2.10166
head 9.8744 -0.25391 0.448104
rclavicle -1.28006e-015 1.59028e-015
rhumerus -20.3215 34.6922 -64.7359
rradius 113.252
rwrist -41.7621
rhand 4.29422 -53.341
rfingers 7.12502
rthumb 29.6966 -80.9828
lclavicle -1.28006e-015 1.59028e-015
lhumerus -30.394 -22.1535 88.7049
lradius 107.287
lwrist 15.4402
lhand -5.99119 -33.6278
lfingers 7.12502
lthumb 19.8408 -4.62052
rfemur 0 0 0
rtibia 0
rfoot 0 0
rtoes 0
lfemur -3.96793 -5.42945 -9.47628
ltibia 23.7397
lfoot -24.5034 14.5751
ltoes -55.626
698
root -0.663562 18.675 5.89051 0.545778 -2.65105 -4.95457
lowerback 2.78345 0.453421 1.1024
upperback -0.884966 0.66477 0.787169
thorax -2.46536 0.320845 0.15743
lowerneck -9.07258 -0.406091 0.778719
upperneck 26.2626 -1.31316 2.16945
head 9.80979 -0.301205 0.478228
rclavicle -9.11614e-016 -6.36111e-015
rhumerus -22.0548 33.8119 -66.121
rradius 112.455
rwrist -42.8397
rhand 4.44305 -54.6907
rfingers 7.12502
rthumb 29.8386 -82.307
lclavicle -9.11614e-016 -6.36111e-015
lhumerus -30.5764 -21.8279 88.8
lradius 106.605
lwrist 15.3151
lhand -6.12004 -33.1492
lfingers 7.12502
lthumb 19.717 -4.12915
rfemur 0 0 0
rtibia 0
rfoot 0 0
rtoes 0
lfemur -3.90352 -5.5184 -9.48845
ltibia 23.7467
lfoot -24.4236 14.4882
ltoes -55.6646
699
root -0.668481 18.673 5.90002 0.456194 -2.45042 -4.92236
lowerback 2.79774 0.436383 1.00134
upperback -0.975376 0.640062 0.802609
thorax -2.56775 0.309685 0.230613
lowerneck -9.04685 -0.489289 0.682479
upperneck 26.0847 -1.41894 2.2177
head 9.74271 -0.356227 0.499314
rclavicle -5.53491e-015 -1.70955e-014
rhumerus -23.9936 32.9762 -67.5962
rradius 111.638
rwrist -43.4523
rhand 4.23776 -55.6984
rfingers 7.12502
rthumb 29.6427 -83.3498
lclavicle -5.53491e-015 -1.70955e-014
lhumerus -30.8143 -21.4337 88.9184
lradius 105.872
lwrist 15.2565
lhand -6.14414 -32.788
lfingers 7.12502
lthumb 19.6938 -3.76558
rfemur 0 0 0
rtibia 0
rfoot 0 0
rtoes 0
lfemur -3.83781 -5.63628 -9.51077
ltibia 23.7698
lfoot -24.4234 14.3778
ltoes -55.6419
700
root -0.673839 18.6711 5.90995 0.425922 -2.28329 -5.00966
lowerback 2.72235 0.429022 1.02916
upperback -1.06781 0.632437 0.848667
thorax -2.62069 0.305479 0.262938
lowerneck -8.98934 -0.56963 0.525836
upperneck 25.8628 -1.52733 2.34422
head 9.65523 -0.410517 0.557626
rclavicle 4.84538e-016 4.37326e-015
rhumerus -26.0283 32.0861 -69.1186
rradius 110.81
rwrist -44.0769
rhand 3.41475 -55.9772
rfingers 7.12502
rthumb 28.8568 -83.7655
lclavicle 4.84538e-016 4.37326e-015
lhumerus -31.1061 -20.977 89.0221
lradius 105.109
lwrist 15.2025
lhand -6.1639 -32.3846
lfingers 7.12502
lthumb 19.6748 -3.36024
rfemur 0 0 0
rtibia 0
rfoot 0 0
rtoes 0
lfemur -3.82866 -5.68363 -9.38157
ltibia 23.8017
lfoot -24.4402 14.2424
ltoes -55.6581
701
root -0.678068 18.6677 5.92399 0.385776 -2.18631 -5.11319
lowerback 2.58704 0.423014 1.11202
upperback -1.14279 0.626933 0.878267
thorax -2.6212 0.301461 0.247967
lowerneck -8.90509 -0.62015 0.381071
upperneck 25.6396 -1.60312 2.50046
head 9.56273 -0.445709 0.6277
rclavicle 4.78326e-016 -8.34896e-015
rhumerus -28.0112 31.0897 -70.757
rradius 109.917
rwrist -44.5208
rhand 2.15337 -55.9134
rfingers 7.12502
rthumb 27.6513 -83.9012
lclavicle 4.78326e-016 -8.34896e-015
lhumerus -31.518 -20.4891 89.0551
lradius 104.373
lwrist 15.2071
lhand -6.26535 -31.9136
lfingers 7.12502
lthumb 19.5773 -2.87928
rfemur 0 0 0
rtibia 0
rfoot 0 0
rtoes 0
lfemur -3.7745 -5.73634 -9.25495
ltibia 23.8315
lfoot -24.4609 14.1861
ltoes -55.705
